<svg width="66" height="66" viewBox="0 0 66 66" fill="none" xmlns="http://www.w3.org/2000/svg">
<g clip-path="url(#clip0_110_71)">
<path d="M11.5158 0.56812H53.495C55.0069 0.566659 56.5043 0.871021 57.9015 1.46379C59.2986 2.05655 60.5681 2.92609 61.6372 4.02263C62.7063 5.11917 63.5541 6.42118 64.1321 7.85416C64.71 9.28713 65.0068 10.8229 65.0054 12.3737V53.7626C65.0068 55.3133 64.71 56.8491 64.1321 58.2821C63.5541 59.715 62.7063 61.0171 61.6372 62.1136C60.5681 63.2101 59.2986 64.0797 57.9015 64.6724C56.5043 65.2652 55.0069 65.5696 53.495 65.5681H11.5158C10.0038 65.5696 8.50641 65.2652 7.10926 64.6724C5.71211 64.0797 4.44265 63.2101 3.37352 62.1136C2.3044 61.0171 1.4566 59.715 0.878652 58.2821C0.300704 56.8491 0.00395116 55.3133 0.0053762 53.7626V12.3737C0.00395116 10.8229 0.300704 9.28713 0.878652 7.85416C1.4566 6.42118 2.3044 5.11917 3.37352 4.02263C4.44265 2.92609 5.71211 2.05655 7.10926 1.46379C8.50641 0.871021 10.0038 0.566659 11.5158 0.56812Z" fill="white"/>
<path d="M32.5095 58.2527L17.8886 54.1938L14.6304 17.6494H50.4324L47.1707 54.1882L32.5095 58.2527Z" fill="#264DE4"/>
<path d="M44.3783 51.8615L47.1654 20.6373H32.5312V55.1458L44.3783 51.8615Z" fill="#2965F1"/>
<path d="M22.0997 34.1912L22.5014 38.6732H32.5313V34.1912H22.0997ZM21.2925 25.1195L21.6999 29.6015H32.5313V25.1195H21.2925ZM32.5313 45.8315L32.5116 45.8367L27.52 44.4889L27.2009 40.9143H22.7016L23.3295 47.9518L32.5107 50.5003L32.5313 50.4947V45.8315Z" fill="white"/>
<path d="M23.0562 7.71814H28.4845V9.98827H25.3263V12.2584H28.4848V14.5284H23.0562V7.71814ZM29.5703 7.71814H34.9988V9.69215H31.8404V10.0869H34.9988V14.6272H29.5704V12.5542H32.7288V12.1595H29.5701V7.71814H29.5703ZM36.0846 7.71814H41.513V9.69215H38.3547V10.0869H41.513V14.6272H36.0846V12.5542H39.2429V12.1595H36.0847V7.71814H36.0846Z" fill="black"/>
<path d="M42.9341 34.1912L43.7432 25.1195H32.5158V29.6015H38.8313L38.4235 34.1912H32.5158V38.6732H38.0349L37.5145 44.4861L32.5156 45.8353V50.4982L41.7041 47.9518L41.7714 47.1945L42.8248 35.3947L42.9341 34.1912Z" fill="#111317"/>
</g>
<defs>
<clipPath id="clip0_110_71">
<rect width="65" height="65" fill="white" transform="translate(0.00537109 0.568115)"/>
</clipPath>
</defs>
</svg>
