<svg width="66" height="66" viewBox="0 0 66 66" fill="none" xmlns="http://www.w3.org/2000/svg">
<g clip-path="url(#clip0_110_90)">
<path d="M11.5158 1.00147H53.495C55.0069 1.00001 56.5043 1.30437 57.9015 1.89714C59.2986 2.4899 60.5681 3.35944 61.6372 4.45598C62.7064 5.55252 63.5541 6.85453 64.1321 8.28751C64.71 9.72048 65.0068 11.2563 65.0054 12.807V54.1959C65.0068 55.7466 64.71 57.2824 64.1321 58.7154C63.5541 60.1484 62.7064 61.4504 61.6372 62.547C60.5681 63.6435 59.2986 64.513 57.9015 65.1058C56.5043 65.6986 55.0069 66.0029 53.495 66.0015H11.5158C10.0038 66.0029 8.50641 65.6986 7.10926 65.1058C5.71211 64.513 4.44265 63.6435 3.37352 62.547C2.3044 61.4504 1.4566 60.1484 0.878652 58.7154C0.300704 57.2824 0.00395116 55.7466 0.0053762 54.1959V12.807C0.00395116 11.2563 0.300704 9.72048 0.878652 8.28751C1.4566 6.85453 2.3044 5.55252 3.37352 4.45598C4.44265 3.35944 5.71211 2.4899 7.10926 1.89714C8.50641 1.30437 10.0038 1.00001 11.5158 1.00147Z" fill="white"/>
<path d="M32.617 7.06812C33.6094 10.8592 36.8231 14.2428 40.2959 17.7535L41.0323 18.4967C46.5205 24.0318 52.6628 30.32 52.6628 39.7027C52.6628 46.9309 48.8422 53.6101 42.6402 57.2242C36.4382 60.8383 28.7969 60.8383 22.5949 57.2242C16.3929 53.6101 12.5723 46.9309 12.5723 39.7027C12.5723 30.5089 18.4694 24.2871 23.8684 18.8331L24.2017 18.4967L24.3678 18.3292C28.053 14.6107 31.5703 11.0659 32.617 7.06812ZM32.6166 37.4139C32.6166 37.4139 31.358 38.7953 30.0399 40.2728L29.8557 40.4794C28.9032 41.549 27.9489 42.6375 27.4418 43.2633C26.3566 44.5469 25.7489 46.1723 25.7235 47.8595C25.7235 49.7049 26.4498 51.4748 27.7427 52.7798C29.0356 54.0847 30.7891 54.8178 32.6176 54.8178C36.4251 54.8178 39.5117 51.7024 39.5117 47.8595C39.5264 46.1584 38.9094 44.5134 37.7822 43.2487C37.2714 42.6738 36.359 41.6437 35.4416 40.6072L35.2582 40.4C33.9143 38.8815 32.6166 37.4139 32.6166 37.4139ZM32.6169 18.708C32.6169 18.708 32.616 18.7089 32.6144 18.7105L32.5583 18.7671C32.5126 18.8132 32.4417 18.8848 32.3505 18.9768L31.8206 19.5113C31.6567 19.6767 31.4755 19.8595 31.2852 20.0515L30.3512 20.9941C30.1804 21.1665 30.012 21.3364 29.8513 21.4986L29.4683 21.8854C29.4442 21.9097 29.4204 21.9337 29.397 21.9573L29.0187 22.3396C28.982 22.3767 28.9472 22.4118 28.9147 22.4447L28.8793 22.4804C28.1126 23.2509 26.5675 24.6905 28.4277 26.7193C29.3943 27.7736 32.2514 30.8064 35.2217 34.0028L35.6182 34.4297C39.1243 38.2072 42.6779 42.0995 43.3753 43.1412C43.9747 44.0366 44.0613 44.4559 44.8722 44.4261C45.3272 44.4094 45.6643 43.8619 45.8128 43.5339C46.5089 41.9976 47.6892 37.3421 44.2642 31.962C41.9009 28.2498 37.2536 23.3502 34.5995 20.6692L34.3738 20.4418C33.3083 19.3702 32.6169 18.708 32.6169 18.708ZM23.7421 28.0812C15.327 36.4836 19.863 44.375 21.0921 44.4171C21.2195 44.4215 21.4318 44.437 21.5771 44.0279C22.281 42.0457 27.9448 36.3132 29.2736 34.9376C29.3797 34.8519 29.4445 34.7245 29.4516 34.5875C29.4587 34.4506 29.4075 34.3171 29.3108 34.2207L23.7421 28.0812Z" fill="#009DDE"/>
</g>
<defs>
<clipPath id="clip0_110_90">
<rect width="65" height="65" fill="white" transform="translate(0.00537109 0.568115)"/>
</clipPath>
</defs>
</svg>
