<svg width="66" height="66" viewBox="0 0 66 66" fill="none" xmlns="http://www.w3.org/2000/svg">
<g clip-path="url(#clip0_110_82)">
<path d="M11.5158 0.56812H53.495C55.0069 0.566659 56.5043 0.871021 57.9015 1.46379C59.2986 2.05655 60.5681 2.92609 61.6372 4.02263C62.7063 5.11917 63.5541 6.42118 64.1321 7.85416C64.71 9.28713 65.0068 10.8229 65.0054 12.3737V53.7626C65.0068 55.3133 64.71 56.8491 64.1321 58.2821C63.5541 59.715 62.7063 61.0171 61.6372 62.1136C60.5681 63.2101 59.2986 64.0797 57.9015 64.6724C56.5043 65.2652 55.0069 65.5696 53.495 65.5681H11.5158C10.0038 65.5696 8.50641 65.2652 7.10926 64.6724C5.71211 64.0797 4.44265 63.2101 3.37352 62.1136C2.3044 61.0171 1.4566 59.715 0.878652 58.2821C0.300704 56.8491 0.00395116 55.3133 0.0053762 53.7626V12.3737C0.00395116 10.8229 0.300704 9.28713 0.878652 7.85416C1.4566 6.42118 2.3044 5.11917 3.37352 4.02263C4.44265 2.92609 5.71211 2.05655 7.10926 1.46379C8.50641 0.871021 10.0038 0.566659 11.5158 0.56812Z" fill="white"/>
<path d="M50.4069 17.6497L47.1452 54.1893L32.4836 58.254L17.8623 54.195L14.604 17.6497H50.4069Z" fill="#E44D26"/>
<path d="M32.5054 55.147L44.3527 51.8626L47.1399 20.6377H32.5054V55.147Z" fill="#F16529"/>
<path d="M26.165 29.6021H32.5057V25.12H21.2666L21.3738 26.3225L22.4755 38.674H32.5057V34.1919H26.5747L26.165 29.6021ZM27.1752 40.9152H22.6758L23.3037 47.9528L32.4851 50.5014L32.5057 50.4958V45.8325L32.486 45.8377L27.4943 44.4898L27.1752 40.9152Z" fill="white"/>
<path d="M17.9351 7.71814H20.2128V9.96854H22.2965V7.71814H24.5744V14.5329H22.2966V12.2509H20.213V14.5329H17.9352V7.71814H17.9351ZM27.5696 9.97808H25.5647V7.71814H31.854V9.97808H29.8478V14.5329H27.57V9.97808H27.5699H27.5696ZM32.8521 7.71814H35.2271L36.6881 10.1127L38.1477 7.71814H40.5237V14.5329H38.2552V11.1551L36.6881 13.5782H36.6488L35.0807 11.1551V14.5329H32.8521V7.71814ZM41.6572 7.71814H43.9357V12.2804H47.1389V14.5329H41.6571V7.71814H41.6572Z" fill="black"/>
<path d="M32.4899 38.674H38.0092L37.4888 44.487L32.4897 45.8363V50.4993L41.6784 47.9528L41.7458 47.1955L42.7992 35.3955L42.9085 34.1919H32.4899V38.674ZM32.4899 29.5912V29.6021H43.3164L43.4062 28.5947L43.6105 26.3225L43.7176 25.12H32.4899V29.5913V29.5912Z" fill="#111317"/>
</g>
<defs>
<clipPath id="clip0_110_82">
<rect width="65" height="65" fill="white" transform="translate(0.00537109 0.568115)"/>
</clipPath>
</defs>
</svg>
