<svg width="66" height="66" viewBox="0 0 66 66" fill="none" xmlns="http://www.w3.org/2000/svg">
<g clip-path="url(#clip0_110_57)">
<path d="M11.5158 0.56812H53.495C55.0069 0.566659 56.5043 0.871021 57.9015 1.46379C59.2986 2.05655 60.5681 2.92609 61.6372 4.02263C62.7063 5.11917 63.5541 6.42118 64.1321 7.85416C64.71 9.28713 65.0068 10.8229 65.0054 12.3737V53.7626C65.0068 55.3133 64.71 56.8491 64.1321 58.2821C63.5541 59.715 62.7063 61.0171 61.6372 62.1136C60.5681 63.2101 59.2986 64.0797 57.9015 64.6724C56.5043 65.2652 55.0069 65.5696 53.495 65.5681H11.5158C10.0038 65.5696 8.50641 65.2652 7.10926 64.6724C5.71211 64.0797 4.44265 63.2101 3.37352 62.1136C2.3044 61.0171 1.4566 59.715 0.878652 58.2821C0.300704 56.8491 0.00395116 55.3133 0.0053762 53.7626V12.3737C0.00395116 10.8229 0.300704 9.28713 0.878652 7.85416C1.4566 6.42118 2.3044 5.11917 3.37352 4.02263C4.44265 2.92609 5.71211 2.05655 7.10926 1.46379C8.50641 0.871021 10.0038 0.566659 11.5158 0.56812Z" fill="#FFEF6B"/>
<path d="M43.7794 51.428C45.0886 53.5658 46.7921 55.1371 49.8048 55.1371C52.3356 55.1371 53.9524 53.8722 53.9524 52.1244C53.9524 50.03 52.2913 49.2881 49.5056 48.0697L47.9786 47.4145C43.5709 45.5367 40.6429 43.1843 40.6429 38.2113C40.6429 33.6304 44.1332 30.1431 49.5881 30.1431C53.4716 30.1431 56.2635 31.4947 58.2754 35.0335L53.519 38.0875C52.4718 36.2097 51.3421 35.47 49.5881 35.47C47.799 35.47 46.6652 36.6049 46.6652 38.0875C46.6652 39.9199 47.8001 40.6617 50.4207 41.7966L51.9477 42.4508C57.1374 44.6762 60.0675 46.945 60.0675 52.046C60.0675 57.5452 55.7476 60.5579 49.9461 60.5579C44.2736 60.5579 40.6088 57.8547 38.8156 54.3117L43.7794 51.428ZM22.2025 51.9573C23.162 53.6597 24.0348 55.0989 26.1334 55.0989C28.1402 55.0989 29.4061 54.3138 29.4061 51.2608V30.4918H35.514V51.3434C35.514 57.668 31.8059 60.5466 26.3934 60.5466C21.5029 60.5466 18.6708 58.0157 17.2305 54.9674L22.2025 51.9573Z" fill="black"/>
</g>
<defs>
<clipPath id="clip0_110_57">
<rect width="65" height="65" fill="white" transform="translate(0.00537109 0.568115)"/>
</clipPath>
</defs>
</svg>
