<svg width="66" height="66" viewBox="0 0 66 66" fill="none" xmlns="http://www.w3.org/2000/svg">
<g clip-path="url(#clip0_110_79)">
<path d="M15.1557 0.568115H49.8551C55.123 0.568115 57.0337 1.11677 58.9595 2.14673C60.8856 3.17668 62.3968 4.68823 63.4268 6.614C64.457 8.54007 65.0054 10.4502 65.0054 15.7184V50.4178C65.0054 55.6858 64.457 57.5962 63.4268 59.5222C62.3968 61.448 60.8856 62.9595 58.9595 63.9895C57.0337 65.0195 55.1233 65.5681 49.8551 65.5681H15.1557C9.88773 65.5681 7.97733 65.0195 6.05126 63.9895C4.12548 62.9595 2.61394 61.448 1.58398 59.5222C0.55403 57.5962 0.00537109 55.686 0.00537109 50.4178V15.7184C0.00537109 10.4505 0.55403 8.54007 1.58398 6.614C2.61394 4.68823 4.12548 3.17668 6.05126 2.14673C7.97733 1.11677 9.88744 0.568115 15.1557 0.568115ZM18.6308 17.3381V51.0908H26.0526V40.2181L30.3072 35.9163L40.4708 51.0908H49.7836L35.3181 30.669L48.5072 17.3381H39.2417L26.0526 31.3308V17.3381H18.6308Z" fill="url(#paint0_linear_110_79)"/>
<path d="M18.6309 17.3381V51.0909H26.0527V40.2181L30.3072 35.9163L40.4709 51.0909H49.7836L35.3181 30.669L48.5072 17.3381H39.2418L26.0527 31.3309V17.3381H18.6309Z" fill="white"/>
</g>
<defs>
<linearGradient id="paint0_linear_110_79" x1="0.00537109" y1="0.568115" x2="32.5054" y2="47.3168" gradientUnits="userSpaceOnUse">
<stop stop-color="#5AE8FA"/>
<stop offset="1" stop-color="#2684FF"/>
</linearGradient>
<clipPath id="clip0_110_79">
<rect width="65" height="65" fill="white" transform="translate(0.00537109 0.568115)"/>
</clipPath>
</defs>
</svg>
