<svg width="66" height="66" viewBox="0 0 66 66" fill="none" xmlns="http://www.w3.org/2000/svg">
<path d="M11.5158 0.56812H53.495C55.0069 0.566659 56.5043 0.871021 57.9015 1.46379C59.2986 2.05655 60.5681 2.92609 61.6372 4.02263C62.7063 5.11917 63.5541 6.42118 64.1321 7.85416C64.71 9.28713 65.0068 10.8229 65.0054 12.3737V53.7626C65.0068 55.3133 64.71 56.8491 64.1321 58.2821C63.5541 59.715 62.7063 61.0171 61.6372 62.1136C60.5681 63.2101 59.2986 64.0797 57.9015 64.6724C56.5043 65.2652 55.0069 65.5696 53.495 65.5681H11.5158C10.0038 65.5696 8.50641 65.2652 7.10926 64.6724C5.71211 64.0797 4.44265 63.2101 3.37352 62.1136C2.3044 61.0171 1.4566 59.715 0.878652 58.2821C0.300704 56.8491 0.00395116 55.3133 0.0053762 53.7626V12.3737C0.00395116 10.8229 0.300704 9.28713 0.878652 7.85416C1.4566 6.42118 2.3044 5.11917 3.37352 4.02263C4.44265 2.92609 5.71211 2.05655 7.10926 1.46379C8.50641 0.871021 10.0038 0.566659 11.5158 0.56812Z" fill="white"/>
<path d="M32.361 57.4431C31.7081 57.4431 31.0598 57.2719 30.4874 56.9423L24.5237 53.4116C23.633 52.9135 24.0677 52.7373 24.3614 52.6358C25.5491 52.2199 25.7901 52.126 27.0578 51.4061C27.191 51.3301 27.3654 51.3569 27.5018 51.4374L32.0833 54.1561C32.2487 54.2455 32.4835 54.2455 32.6369 54.1561L50.5006 43.8448C50.666 43.7509 50.7733 43.5586 50.7733 43.3619V22.7482C50.7733 22.5425 50.666 22.3592 50.497 22.2563L32.6404 11.954C32.475 11.8556 32.2559 11.8556 32.0904 11.954L14.2375 22.2563C14.0644 22.3547 13.9544 22.547 13.9544 22.7437V43.3574C13.9544 43.5541 14.0617 43.742 14.2317 43.8359L19.1235 46.6619C21.7796 47.9899 23.4027 46.4249 23.4027 44.8509V24.5055C23.4027 24.2149 23.6308 23.9913 23.9214 23.9913H26.184C26.4657 23.9913 26.6982 24.2149 26.6982 24.5055V44.8598C26.6982 48.4013 24.7666 50.4358 21.4084 50.4358C20.3755 50.4358 19.5617 50.4358 17.2902 49.3179L12.604 46.6171C11.4459 45.9464 10.7305 44.6944 10.7305 43.3574V22.7437C10.7305 21.4023 11.4459 20.1502 12.604 19.4885L30.4856 9.17269C31.6169 8.53326 33.1193 8.53326 34.2417 9.17269L52.1009 19.4929C53.2546 20.1592 53.9745 21.4067 53.9745 22.7482V43.3619C53.9745 44.6989 53.2546 45.9464 52.1009 46.6171L34.2417 56.9329C33.6693 57.2638 33.021 57.4337 32.3592 57.4337" fill="#81DB79"/>
<path d="M37.8788 43.2389C30.0626 43.2389 28.4238 39.6509 28.4238 36.6416C28.4238 36.3554 28.6546 36.1274 28.9412 36.1274H31.2485C31.5034 36.1274 31.718 36.313 31.7582 36.5647C32.107 38.9158 33.1444 40.1017 37.8708 40.1017C41.6358 40.1017 43.2366 39.2512 43.2366 37.2547C43.2366 36.1055 42.7805 35.2514 36.9318 34.6791C32.0399 34.1961 29.0172 33.1185 29.0172 29.2059C29.0172 25.6019 32.0578 23.4556 37.1509 23.4556C42.8699 23.4556 45.7049 25.4409 46.0626 29.7067C46.076 29.8543 46.0224 29.9974 45.924 30.1047C45.8256 30.2075 45.687 30.2701 45.5439 30.2701H43.2232C42.9817 30.2701 42.7716 30.1002 42.7224 29.8677C42.1635 27.395 40.8131 26.6035 37.1419 26.6035C33.0326 26.6035 32.5542 28.0344 32.5542 29.1076C32.5542 30.4088 33.1176 30.7888 38.6623 31.5222C44.1533 32.251 46.7602 33.2795 46.7602 37.1384C46.7602 41.0286 43.5138 43.2599 37.8529 43.2599L37.8788 43.2389Z" fill="#81DB79"/>
</svg>
