<svg width="66" height="66" viewBox="0 0 66 66" fill="none" xmlns="http://www.w3.org/2000/svg">
<g clip-path="url(#clip0_110_120)">
<path d="M11.5158 1.00147H53.495C55.0069 1.00001 56.5043 1.30437 57.9015 1.89714C59.2986 2.4899 60.5681 3.35944 61.6372 4.45598C62.7064 5.55252 63.5541 6.85453 64.1321 8.28751C64.71 9.72048 65.0068 11.2563 65.0054 12.807V54.1959C65.0068 55.7466 64.71 57.2824 64.1321 58.7154C63.5541 60.1484 62.7064 61.4504 61.6372 62.547C60.5681 63.6435 59.2986 64.513 57.9015 65.1058C56.5043 65.6986 55.0069 66.0029 53.495 66.0015H11.5158C10.0038 66.0029 8.50641 65.6986 7.10926 65.1058C5.71211 64.513 4.44265 63.6435 3.37352 62.547C2.3044 61.4504 1.4566 60.1484 0.878652 58.7154C0.300704 57.2824 0.00395116 55.7466 0.0053762 54.1959V12.807C0.00395116 11.2563 0.300704 9.72048 0.878652 8.28751C1.4566 6.85453 2.3044 5.55252 3.37352 4.45598C4.44265 3.35944 5.71211 2.4899 7.10926 1.89714C8.50641 1.30437 10.0038 1.00001 11.5158 1.00147Z" fill="white"/>
<path d="M30.5849 6.63477L54.8613 21.2277V48.9262L36.5815 59.5014V31.8028L12.2759 17.2293L30.5849 6.63477ZM28.724 36.3517V57.9658L10.4053 46.9463L28.724 36.3517Z" fill="black"/>
</g>
<defs>
<clipPath id="clip0_110_120">
<rect width="65" height="65" fill="white" transform="translate(0.00537109 0.568115)"/>
</clipPath>
</defs>
</svg>
