<svg width="66" height="66" viewBox="0 0 66 66" fill="none" xmlns="http://www.w3.org/2000/svg">
<g clip-path="url(#clip0_110_93)">
<path d="M11.5158 0.56812H53.495C55.0069 0.566659 56.5043 0.871021 57.9015 1.46379C59.2986 2.05655 60.5681 2.92609 61.6372 4.02263C62.7063 5.11917 63.5542 6.42118 64.1321 7.85416C64.71 9.28713 65.0068 10.8229 65.0054 12.3737V53.7626C65.0068 55.3133 64.71 56.8491 64.1321 58.2821C63.5542 59.715 62.7063 61.0171 61.6372 62.1136C60.5681 63.2101 59.2986 64.0797 57.9015 64.6724C56.5043 65.2652 55.0069 65.5696 53.495 65.5681H11.5158C10.0038 65.5696 8.50641 65.2652 7.10926 64.6724C5.71211 64.0797 4.44265 63.2101 3.37352 62.1136C2.3044 61.0171 1.4566 59.715 0.878652 58.2821C0.300704 56.8491 0.00395116 55.3133 0.0053762 53.7626V12.3737C0.00395116 10.8229 0.300704 9.28713 0.878652 7.85416C1.4566 6.42118 2.3044 5.11917 3.37352 4.02263C4.44265 2.92609 5.71211 2.05655 7.10926 1.46379C8.50641 0.871021 10.0038 0.566659 11.5158 0.56812Z" fill="#6872FF"/>
<path d="M15.3389 36.8657C16.9193 36.8657 18.0992 36.5742 18.8457 35.9997C19.5843 35.4311 20.0944 34.4458 20.3617 33.0716C20.611 31.787 20.516 30.8901 20.0796 30.4061C19.6333 29.9117 18.6683 29.661 17.2117 29.661H14.686L13.2858 36.8657H15.3389ZM7.07794 45.7406C6.9607 45.7406 6.84935 45.6882 6.77481 45.5976C6.70015 45.507 6.66989 45.3878 6.69229 45.2727L10.4031 26.1801C10.439 25.9955 10.6008 25.8621 10.7889 25.8621H18.7866C21.3002 25.8621 23.171 26.5446 24.347 27.8909C25.5292 29.2442 25.8943 31.1359 25.432 33.5133C25.2439 34.4819 24.9203 35.3814 24.4704 36.1868C24.0199 36.993 23.4245 37.739 22.7005 38.4045C21.8338 39.2156 20.8529 39.8038 19.7877 40.1499C18.7393 40.4914 17.393 40.6646 15.7861 40.6646H12.5476L11.6228 45.4225C11.5869 45.6072 11.4253 45.7406 11.2371 45.7406H7.07794Z" fill="black"/>
<path d="M15.0099 30.0539H17.2116C18.9697 30.0539 19.5804 30.4397 19.7879 30.6696C20.1322 31.0513 20.1971 31.8562 19.9759 32.997C19.7273 34.2742 19.2664 35.1798 18.6059 35.6883C17.9297 36.2089 16.8304 36.4727 15.3388 36.4727H13.7624L15.0099 30.0539ZM18.7866 25.4691H10.7887C10.4125 25.4691 10.0891 25.7358 10.0173 26.1051L6.30645 45.1977C6.26165 45.4281 6.32217 45.6664 6.47137 45.8476C6.62071 46.0287 6.84313 46.1335 7.07788 46.1335H11.237C11.6133 46.1335 11.9367 45.8668 12.0085 45.4976L12.8715 41.0575H15.786C17.4342 41.0575 18.8217 40.8778 19.9096 40.5234C21.0284 40.1599 22.0578 39.5436 22.9688 38.6916C23.7223 37.9984 24.343 37.2203 24.8133 36.3786C25.2837 35.5367 25.6216 34.5979 25.8177 33.5882C26.3044 31.0857 25.909 29.0817 24.6428 27.6324C23.3889 26.1969 21.4185 25.4691 18.7866 25.4691ZM12.8089 37.2587H15.3388C17.0157 37.2587 18.2647 36.9428 19.0854 36.311C19.9062 35.6791 20.4598 34.6245 20.7474 33.1466C21.0227 31.7277 20.8973 30.7263 20.3714 30.143C19.8448 29.5597 18.7917 29.268 17.2116 29.268H14.362L12.8089 37.2587ZM18.7866 26.2551C21.1926 26.2551 22.9478 26.8865 24.051 28.1494C25.1541 29.4123 25.4863 31.1751 25.0462 33.4383C24.865 34.3706 24.5586 35.223 24.1272 35.9952C23.6953 36.7679 23.1314 37.4745 22.4345 38.1152C21.604 38.8924 20.6814 39.4463 19.6662 39.7761C18.651 40.1069 17.358 40.2715 15.786 40.2715H12.2235L11.237 45.3476H7.07788L10.7887 26.2551H18.7866Z" fill="white"/>
<path d="M34.968 40.6646C34.8506 40.6646 34.7394 40.6122 34.6649 40.5215C34.5901 40.431 34.5598 40.3119 34.5822 40.1966L36.2237 31.7489C36.3798 30.9455 36.3413 30.3689 36.1154 30.1252C35.977 29.9763 35.5615 29.7265 34.3329 29.7265H31.3591L29.2953 40.3465C29.2594 40.5312 29.0976 40.6646 28.9095 40.6646H24.7831C24.6658 40.6646 24.5546 40.6122 24.4799 40.5215C24.4052 40.431 24.375 40.3118 24.3974 40.1966L28.1082 21.104C28.1441 20.9195 28.3059 20.7861 28.494 20.7861H32.6203C32.7377 20.7861 32.8489 20.8385 32.9235 20.929C32.9982 21.0197 33.0285 21.1387 33.0061 21.254L32.1106 25.8621H35.3098C37.7469 25.8621 39.3995 26.2918 40.3621 27.1758C41.3432 28.0775 41.6494 29.5194 41.2721 31.4618L39.5456 40.3465C39.5097 40.5312 39.3481 40.6646 39.1598 40.6646H34.968Z" fill="black"/>
<path d="M32.6202 20.393H28.4939C28.1176 20.393 27.7941 20.6597 27.7223 21.0289L24.0115 40.1215C23.9667 40.352 24.0272 40.5902 24.1766 40.7714C24.3259 40.9526 24.5483 41.0574 24.7831 41.0574H28.9094C29.2856 41.0574 29.6092 40.7907 29.681 40.4214L31.683 30.1193H34.3329C35.5594 30.1193 35.8168 30.3813 35.8271 30.3926C35.9015 30.4726 35.9994 30.8433 35.8379 31.6738L34.1964 40.1215C34.1516 40.352 34.2121 40.5902 34.3614 40.7714C34.5108 40.9526 34.7332 41.0574 34.9679 41.0574H39.1598C39.536 41.0574 39.8595 40.7907 39.9313 40.4214L41.6577 31.5367C42.0629 29.4511 41.7162 27.8866 40.6279 26.8864C39.5894 25.9326 37.8498 25.469 35.3097 25.469H32.5871L33.3918 21.3289C33.4365 21.0985 33.3761 20.8601 33.2267 20.679C33.0774 20.4979 32.855 20.393 32.6202 20.393ZM32.6202 21.1789L31.6337 26.255H35.3097C37.6227 26.255 39.2181 26.6587 40.0961 27.4651C40.9742 28.272 41.2372 29.5795 40.8863 31.3868L39.1598 40.2714H34.9679L36.6094 31.8238C36.7962 30.8628 36.7276 30.2073 36.4032 29.8578C36.0788 29.5084 35.3885 29.3333 34.3329 29.3333H31.0349L28.9094 40.2714H24.7831L28.4939 21.1789H32.6202Z" fill="white"/>
<path d="M47.8012 36.8657C49.3817 36.8657 50.5616 36.5742 51.3081 35.9997C52.0467 35.4312 52.5567 34.446 52.8242 33.0716C53.0735 31.787 52.9785 30.8901 52.5419 30.4061C52.0956 29.9117 51.1307 29.661 49.6741 29.661H47.1484L45.7482 36.8657H47.8012ZM39.5405 45.7406C39.4232 45.7406 39.3119 45.6882 39.2373 45.5976C39.1627 45.507 39.1323 45.3878 39.1547 45.2727L42.8655 26.1801C42.9015 25.9955 43.0632 25.8621 43.2514 25.8621H51.249C53.7627 25.8621 55.6334 26.5446 56.8095 27.8909C57.9917 29.244 58.3567 31.1357 57.8945 33.5133C57.7062 34.4819 57.3827 35.3814 56.9328 36.1868C56.4823 36.993 55.8869 37.739 55.1629 38.4045C54.2962 39.2156 53.3153 39.8038 52.2501 40.1499C51.2017 40.4914 49.8554 40.6646 48.2485 40.6646H45.0099L44.0854 45.4225C44.0494 45.6072 43.8878 45.7406 43.6995 45.7406H39.5405Z" fill="black"/>
<path d="M47.4726 30.0539H49.6744C51.4325 30.0539 52.0432 30.4397 52.2507 30.6696C52.595 31.0513 52.66 31.8562 52.4386 32.9969C52.19 34.2742 51.729 35.1798 51.0687 35.6883C50.3925 36.2089 49.2932 36.4727 47.8016 36.4727H46.2253L47.4726 30.0539ZM51.2493 25.4691H43.2516C42.8754 25.4691 42.5519 25.7358 42.4802 26.1051L38.7693 45.1977C38.7245 45.4281 38.7851 45.6664 38.9343 45.8476C39.0836 46.0287 39.306 46.1335 39.5408 46.1335H43.6999C44.0761 46.1335 44.3996 45.8668 44.4714 45.4976L45.3343 41.0575H48.2488C49.897 41.0575 51.2844 40.8778 52.3724 40.5234C53.4912 40.1599 54.5208 39.5435 55.4319 38.6913C56.1854 37.9982 56.8057 37.2203 57.276 36.3786C57.7464 35.5367 58.0844 34.5979 58.2805 33.5882C58.7671 31.0855 58.3718 29.0816 57.1056 27.6322C55.8517 26.1969 53.8814 25.4691 51.2493 25.4691ZM45.2718 37.2587H47.8016C49.4784 37.2587 50.7275 36.9428 51.5481 36.311C52.3691 35.6791 52.9225 34.6245 53.2102 33.1466C53.4856 31.7277 53.3602 30.7263 52.8341 30.143C52.3075 29.5597 51.2544 29.268 49.6744 29.268H46.8247L45.2718 37.2587ZM51.2493 26.2551C53.6553 26.2551 55.4105 26.8865 56.5138 28.1494C57.617 29.4123 57.9491 31.1751 57.5089 33.4383C57.3278 34.3706 57.0214 35.223 56.59 35.9952C56.1581 36.7679 55.5942 37.4745 54.8973 38.1152C54.0668 38.8924 53.1442 39.4463 52.129 39.7761C51.1138 40.1069 49.8207 40.2715 48.2488 40.2715H44.6862L43.6999 45.3476H39.5408L43.2516 26.2551H51.2493Z" fill="white"/>
</g>
<defs>
<clipPath id="clip0_110_93">
<rect width="65" height="65" fill="white" transform="translate(0.00537109 0.568115)"/>
</clipPath>
</defs>
</svg>
