<svg width="66" height="66" viewBox="0 0 66 66" fill="none" xmlns="http://www.w3.org/2000/svg">
<g clip-path="url(#clip0_110_112)">
<path d="M11.5158 0.56812H53.495C55.0069 0.566659 56.5043 0.871021 57.9015 1.46379C59.2986 2.05655 60.5681 2.92609 61.6372 4.02263C62.7063 5.11917 63.5541 6.42118 64.1321 7.85416C64.71 9.28713 65.0068 10.8229 65.0054 12.3737V53.7626C65.0068 55.3133 64.71 56.8491 64.1321 58.2821C63.5541 59.715 62.7063 61.0171 61.6372 62.1136C60.5681 63.2101 59.2986 64.0797 57.9015 64.6724C56.5043 65.2652 55.0069 65.5696 53.495 65.5681H11.5158C10.0038 65.5696 8.50641 65.2652 7.10926 64.6724C5.71211 64.0797 4.44265 63.2101 3.37352 62.1136C2.3044 61.0171 1.4566 59.715 0.878652 58.2821C0.300704 56.8491 0.00395116 55.3133 0.0053762 53.7626V12.3737C0.00395116 10.8229 0.300704 9.28713 0.878652 7.85416C1.4566 6.42118 2.3044 5.11917 3.37352 4.02263C4.44265 2.92609 5.71211 2.05655 7.10926 1.46379C8.50641 0.871021 10.0038 0.566659 11.5158 0.56812Z" fill="white"/>
<g clip-path="url(#clip1_110_112)">
<path d="M32.722 37.691C35.2178 37.691 37.241 35.694 37.241 33.2306C37.241 30.7672 35.2178 28.7701 32.722 28.7701C30.2263 28.7701 28.2031 30.7672 28.2031 33.2306C28.2031 35.694 30.2263 37.691 32.722 37.691Z" fill="#61DAFB"/>
<path fill-rule="evenodd" clip-rule="evenodd" d="M11.0875 30.4474C9.99108 31.4244 9.53047 32.3666 9.53047 33.2306C9.53047 34.0946 9.99108 35.0369 11.0875 36.0138C12.1838 36.9907 13.8295 37.9182 15.953 38.7185C20.1927 40.3163 26.1212 41.3265 32.722 41.3265C39.3229 41.3265 45.2514 40.3163 49.4911 38.7185C51.6146 37.9182 53.2603 36.9907 54.3566 36.0138C55.453 35.0369 55.9136 34.0946 55.9136 33.2306C55.9136 32.3666 55.453 31.4244 54.3566 30.4474C53.2603 29.4706 51.6146 28.543 49.4911 27.7427C45.2514 26.1449 39.3229 25.1347 32.722 25.1347C26.1212 25.1347 20.1927 26.1449 15.953 27.7427C13.8295 28.543 12.1838 29.4706 11.0875 30.4474ZM15.1995 25.7947C19.7357 24.0851 25.9312 23.0496 32.722 23.0496C39.5129 23.0496 45.7083 24.0851 50.2446 25.7947C52.5091 26.6482 54.4144 27.6898 55.7721 28.8996C57.1297 30.1093 58.0261 31.5711 58.0261 33.2306C58.0261 34.8902 57.1297 36.352 55.7721 37.5616C54.4144 38.7714 52.5091 39.8131 50.2446 40.6665C45.7083 42.3761 39.5129 43.4117 32.722 43.4117C25.9312 43.4117 19.7357 42.3761 15.1995 40.6665C12.935 39.8131 11.0297 38.7714 9.67196 37.5616C8.31438 36.352 7.41797 34.8902 7.41797 33.2306C7.41797 31.5711 8.31438 30.1093 9.67196 28.8996C11.0297 27.6898 12.935 26.6482 15.1995 25.7947Z" fill="#61DAFB"/>
<path fill-rule="evenodd" clip-rule="evenodd" d="M24.3465 13.3454C22.9411 12.8966 21.8841 12.974 21.1261 13.406C20.368 13.838 19.7716 14.7028 19.4627 16.1286C19.1537 17.5542 19.1628 19.4247 19.5224 21.64C20.2403 26.0632 22.3183 31.636 25.6187 37.2786C28.9191 42.9211 32.7696 47.4838 36.2914 50.3091C38.0553 51.7241 39.692 52.6671 41.0972 53.1159C42.5026 53.5646 43.5596 53.4872 44.3176 53.0552C45.0757 52.6233 45.6721 51.7584 45.981 50.3327C46.29 48.9071 46.2809 47.0365 45.9213 44.8212C45.2034 40.3981 43.1254 34.8252 39.825 29.1827C36.5246 23.5401 32.674 18.9774 29.1523 16.1522C27.3884 14.7371 25.7517 13.7941 24.3465 13.3454ZM30.4846 14.534C34.2528 17.5569 38.2591 22.3351 41.6545 28.1401C45.0499 33.945 47.239 39.7588 48.0072 44.4913C48.3907 46.8538 48.4294 49.0033 48.0468 50.7688C47.6643 52.5341 46.8299 54.0313 45.3739 54.8611C43.9178 55.6908 42.1871 55.6555 40.447 55.0998C38.7067 54.5441 36.8401 53.4362 34.9591 51.9272C31.1909 48.9043 27.1846 44.1261 23.7892 38.3211C20.3938 32.5162 18.2046 26.7024 17.4365 21.9699C17.053 19.6074 17.0143 17.4579 17.3969 15.6924C17.7794 13.9271 18.6138 12.4299 20.0698 11.6002C21.5259 10.7704 23.2566 10.8058 24.9967 11.3614C26.737 11.9171 28.6036 13.025 30.4846 14.534Z" fill="#61DAFB"/>
<path fill-rule="evenodd" clip-rule="evenodd" d="M45.9812 16.1285C45.6722 14.7028 45.0758 13.8379 44.3178 13.406C43.5597 12.974 42.5027 12.8966 41.0973 13.3453C39.6921 13.7941 38.0555 14.7371 36.2916 16.1521C32.7698 18.9774 28.9193 23.5401 25.6188 29.1826C22.3184 34.8252 20.2405 40.398 19.5225 44.8212C19.1629 47.0365 19.1539 48.907 19.4628 50.3326C19.7717 51.7584 20.3682 52.6232 21.1262 53.0552C21.8842 53.4872 22.9413 53.5646 24.3466 53.1158C25.7519 52.6671 27.3885 51.7241 29.1524 50.309C32.6742 47.4838 36.5247 42.9211 39.8251 37.2785C43.1256 31.636 45.2035 26.0631 45.9214 21.64C46.281 19.4247 46.2901 17.5541 45.9812 16.1285ZM48.0073 21.9699C47.2392 26.7024 45.05 32.5162 41.6546 38.3211C38.2592 44.1261 34.2529 48.9043 30.4848 51.9272C28.6037 53.4362 26.7371 54.5441 24.9969 55.0998C23.2567 55.6554 21.526 55.6908 20.0699 54.861C18.6139 54.0313 17.7796 52.5341 17.397 50.7688C17.0144 49.0033 17.0532 46.8538 17.4366 44.4913C18.2048 39.7588 20.3939 33.945 23.7893 28.1401C27.1848 22.3351 31.1911 17.5569 34.9592 14.534C36.8402 13.025 38.7068 11.9171 40.4471 11.3614C42.1872 10.8057 43.918 10.7704 45.374 11.6001C46.8301 12.4299 47.6644 13.9271 48.0469 15.6924C48.4295 17.4579 48.3908 19.6074 48.0073 21.9699Z" fill="#61DAFB"/>
</g>
</g>
<defs>
<clipPath id="clip0_110_112">
<rect width="65" height="65" fill="white" transform="translate(0.00537109 0.568115)"/>
</clipPath>
<clipPath id="clip1_110_112">
<rect width="50.7" height="44.525" fill="white" transform="translate(7.37207 10.9681)"/>
</clipPath>
</defs>
</svg>
