<svg width="66" height="66" viewBox="0 0 66 66" fill="none" xmlns="http://www.w3.org/2000/svg">
<g clip-path="url(#clip0_110_131)">
<path d="M11.5158 0.56812H53.495C55.0069 0.566659 56.5043 0.871021 57.9015 1.46379C59.2986 2.05655 60.5681 2.92609 61.6372 4.02263C62.7063 5.11917 63.5541 6.42118 64.1321 7.85416C64.71 9.28713 65.0068 10.8229 65.0054 12.3737V53.7626C65.0068 55.3133 64.71 56.8491 64.1321 58.2821C63.5541 59.715 62.7063 61.0171 61.6372 62.1136C60.5681 63.2101 59.2986 64.0797 57.9015 64.6724C56.5043 65.2652 55.0069 65.5696 53.495 65.5681H11.5158C10.0038 65.5696 8.50641 65.2652 7.10926 64.6724C5.71211 64.0797 4.44265 63.2101 3.37352 62.1136C2.3044 61.0171 1.4566 59.715 0.878652 58.2821C0.300704 56.8491 0.00395116 55.3133 0.0053762 53.7626V12.3737C0.00395116 10.8229 0.300704 9.28713 0.878652 7.85416C1.4566 6.42118 2.3044 5.11917 3.37352 4.02263C4.44265 2.92609 5.71211 2.05655 7.10926 1.46379C8.50641 0.871021 10.0038 0.566659 11.5158 0.56812Z" fill="white"/>
<g clip-path="url(#clip1_110_131)">
<path d="M50.3154 36.025C48.593 36.0341 47.096 36.4528 45.8426 37.0718C45.3826 36.1525 44.9227 35.3332 44.8416 34.7325C44.7514 34.0316 44.6432 33.6038 44.7514 32.7663C44.8596 31.9289 45.3466 30.7365 45.3376 30.6454C45.3285 30.5544 45.2293 30.1266 44.2374 30.1175C43.2454 30.1084 42.3887 30.3086 42.2895 30.5726C42.1903 30.8366 42.0009 31.4373 41.8747 32.0563C41.7033 32.9666 39.8908 36.2162 38.8537 37.9184C38.52 37.2539 38.2315 36.6713 38.1683 36.2071C38.0782 35.5062 37.9699 35.0784 38.0782 34.2409C38.1864 33.4035 38.6733 32.2111 38.6643 32.12C38.6553 32.029 38.5561 31.6012 37.5641 31.5921C36.5722 31.583 35.7155 31.7832 35.6163 32.0472C35.5171 32.3112 35.4089 32.9302 35.2014 33.5309C34.994 34.1317 32.5863 39.5568 31.955 40.9586C31.6304 41.6777 31.3508 42.2512 31.1524 42.6426C31.1524 42.6426 31.1434 42.6699 31.1163 42.7154C30.945 43.0522 30.8458 43.2342 30.8458 43.2342C30.8458 43.2342 30.8458 43.2342 30.8458 43.2433C30.7105 43.4891 30.5663 43.7167 30.4941 43.7167C30.44 43.7167 30.3408 43.0613 30.5121 42.1692C30.8729 40.285 31.7296 37.354 31.7205 37.2539C31.7205 37.1993 31.8829 36.6895 31.1614 36.4255C30.458 36.1616 30.2055 36.5985 30.1424 36.5985C30.0793 36.5985 30.0342 36.7532 30.0342 36.7532C30.0342 36.7532 30.8188 33.4581 28.5372 33.4581C27.1124 33.4581 25.1465 35.0329 24.1726 36.4528C23.5594 36.7896 22.2518 37.5087 20.854 38.2825C20.3219 38.5828 19.7718 38.8832 19.2578 39.1654C19.2217 39.129 19.1857 39.0835 19.1496 39.0471C16.3901 36.0705 11.286 33.9679 11.5024 29.9718C11.5836 28.5154 12.0796 24.6924 21.3049 20.0501C28.8979 16.2725 34.9399 17.3193 35.986 19.6405C37.483 22.9538 32.7486 29.1071 24.903 29.9992C21.9091 30.3359 20.34 29.1708 19.9432 28.7339C19.5284 28.2788 19.4652 28.2515 19.3119 28.3425C19.0594 28.479 19.2217 28.8886 19.3119 29.1253C19.5464 29.7443 20.5113 30.8366 22.1435 31.3736C23.5864 31.847 27.0944 32.1109 31.3418 30.4543C36.0942 28.5974 39.8096 23.4362 38.7184 19.1125C37.6273 14.7251 30.4129 13.2778 23.5864 15.7264C19.5284 17.1828 15.1276 19.4766 11.9623 22.4623C8.20189 26.0122 7.60671 29.098 7.85019 30.3906C8.72492 34.9782 14.9924 37.9639 17.4993 40.1758C17.3731 40.2486 17.2558 40.3123 17.1567 40.3669C15.9032 40.995 11.1237 43.5164 9.93332 46.1835C8.58064 49.2055 10.1497 51.3719 11.1868 51.6632C14.4062 52.5643 17.7158 50.9441 19.4923 48.2679C21.2688 45.5918 21.0524 42.1146 20.2318 40.5217C20.2227 40.5035 20.2137 40.4853 20.1957 40.4671C20.5203 40.2759 20.854 40.0757 21.1786 39.8845C21.8189 39.5022 22.4502 39.1472 22.9912 38.8559C22.6846 39.7024 22.4592 40.7128 22.351 42.1692C22.2157 43.8805 22.9101 46.1015 23.8209 46.9754C24.2267 47.3577 24.7046 47.3668 25.0112 47.3668C26.0753 47.3668 26.5533 46.4747 27.0853 45.4188C27.7346 44.1263 28.3208 42.6244 28.3208 42.6244C28.3208 42.6244 27.5903 46.6841 29.5743 46.6841C30.2957 46.6841 31.0262 45.7374 31.3508 45.255C31.3508 45.2641 31.3508 45.2641 31.3508 45.2641C31.3508 45.2641 31.3688 45.2368 31.4049 45.1731C31.4771 45.0547 31.5221 44.9819 31.5221 44.9819C31.5221 44.9819 31.5221 44.9728 31.5221 44.9637C31.8107 44.454 32.46 43.2979 33.4249 41.3773C34.6694 38.9014 35.8688 35.8066 35.8688 35.8066C35.8688 35.8066 35.977 36.5621 36.3467 37.8182C36.5631 38.5555 37.014 39.3657 37.3748 40.1485C37.0862 40.5581 36.9058 40.7856 36.9058 40.7856C36.9058 40.7856 36.9058 40.7857 36.9148 40.7948C36.6804 41.1042 36.4279 41.441 36.1483 41.7687C35.1654 42.9521 33.9931 44.3083 33.8307 44.6997C33.6414 45.164 33.6864 45.5008 34.0472 45.7738C34.3087 45.9741 34.7776 46.0014 35.2556 45.9741C36.1393 45.9104 36.7615 45.6919 37.0682 45.5554C37.5461 45.3824 38.1052 45.1185 38.6282 44.727C39.5932 44.0079 40.1793 42.9794 40.1252 41.6231C40.0982 40.8767 39.8547 40.1303 39.5571 39.4294C39.6473 39.3019 39.7284 39.1745 39.8186 39.0471C41.3426 36.7987 42.524 34.332 42.524 34.332C42.524 34.332 42.6322 35.0875 43.0019 36.3436C43.1823 36.9808 43.552 37.6726 43.8767 38.3462C42.4428 39.5204 41.5591 40.8858 41.2434 41.7778C40.6753 43.4345 41.1172 44.1809 41.9558 44.3538C42.3346 44.4358 42.8757 44.2537 43.2725 44.0808C43.7775 43.9169 44.3726 43.6347 44.9408 43.216C45.9057 42.4969 46.8345 41.4956 46.7804 40.1394C46.7534 39.5204 46.591 38.9105 46.3656 38.3189C47.583 37.8091 49.1521 37.5269 51.1541 37.7636C55.4466 38.2734 56.2943 40.9768 56.132 42.1146C55.9697 43.2524 55.0679 43.8714 54.7703 44.0626C54.4727 44.2537 54.3735 44.3174 54.4005 44.454C54.4366 44.6542 54.5809 44.6451 54.8334 44.6087C55.1851 44.545 57.0879 43.6894 57.169 41.5958C57.3043 38.9196 54.7793 35.9977 50.3154 36.025ZM17.2017 47.294C15.7769 48.8596 13.793 49.4513 12.9363 48.9506C12.0165 48.4136 12.3772 46.1015 14.1266 44.4449C15.1908 43.4345 16.5615 42.4969 17.4723 41.9235C17.6797 41.796 17.9863 41.614 18.356 41.3864C18.4192 41.35 18.4552 41.3318 18.4552 41.3318C18.5274 41.2863 18.5995 41.2408 18.6717 41.1953C19.3119 43.5619 18.6987 45.6464 17.2017 47.294ZM27.5723 40.1758C27.0763 41.3955 26.0393 44.5177 25.408 44.3447C24.8669 44.1991 24.5333 41.8324 25.2998 39.4931C25.6876 38.3189 26.5082 36.9171 26.9862 36.3709C27.7617 35.4971 28.6184 35.2058 28.8258 35.5608C29.0873 36.025 27.8789 39.4112 27.5723 40.1758ZM36.1303 44.3083C35.9229 44.4176 35.7245 44.4904 35.6343 44.4358C35.5712 44.3994 35.7245 44.2537 35.7245 44.2537C35.7245 44.2537 36.7976 43.0886 37.2215 42.5606C37.4649 42.2512 37.7535 41.8871 38.0601 41.4774C38.0601 41.5139 38.0601 41.5594 38.0601 41.5958C38.0601 42.9885 36.7255 43.926 36.1303 44.3083ZM42.7314 42.7882C42.5781 42.679 42.6051 42.3149 43.1192 41.1771C43.3176 40.731 43.7865 39.9846 44.5891 39.2655C44.6792 39.5568 44.7424 39.839 44.7334 40.103C44.7243 41.8597 43.4799 42.5151 42.7314 42.7882Z" fill="#E67BAF"/>
</g>
</g>
<defs>
<clipPath id="clip0_110_131">
<rect width="65" height="65" fill="white" transform="translate(0.00537109 0.568115)"/>
</clipPath>
<clipPath id="clip1_110_131">
<rect width="49.4" height="37.375" fill="white" transform="translate(7.80518 14.5431)"/>
</clipPath>
</defs>
</svg>
