<svg width="66" height="66" viewBox="0 0 66 66" fill="none" xmlns="http://www.w3.org/2000/svg">
<path d="M11.5158 1.00147H53.495C55.0069 1.00001 56.5043 1.30437 57.9015 1.89714C59.2986 2.4899 60.5681 3.35944 61.6372 4.45598C62.7064 5.55252 63.5541 6.85453 64.1321 8.28751C64.71 9.72048 65.0068 11.2563 65.0054 12.807V54.1959C65.0068 55.7466 64.71 57.2824 64.1321 58.7154C63.5541 60.1484 62.7064 61.4504 61.6372 62.547C60.5681 63.6435 59.2986 64.513 57.9015 65.1058C56.5043 65.6986 55.0069 66.0029 53.495 66.0015H11.5158C10.0038 66.0029 8.50641 65.6986 7.10926 65.1058C5.71211 64.513 4.44265 63.6435 3.37352 62.547C2.3044 61.4504 1.4566 60.1484 0.878652 58.7154C0.300704 57.2824 0.00395116 55.7466 0.0053762 54.1959V12.807C0.00395116 11.2563 0.300704 9.72048 0.878652 8.28751C1.4566 6.85453 2.3044 5.55252 3.37352 4.45598C4.44265 3.35944 5.71211 2.4899 7.10926 1.89714C8.50641 1.30437 10.0038 1.00001 11.5158 1.00147Z" fill="white"/>
<path d="M58.0605 6.63477H22.7607V24.3338H40.1299C40.7487 24.3338 41.2507 24.8358 41.2507 25.4546V42.584H59.1813V7.7576C59.1818 7.46 59.064 7.17439 58.8537 6.96376C58.6435 6.75313 58.3581 6.63477 58.0605 6.63477Z" fill="#8E75FF"/>
<path opacity="0.405" d="M22.7589 6.63477V24.3338H6.19911C5.97156 24.3334 5.76675 24.1957 5.68054 23.9851C5.59433 23.7745 5.64376 23.5327 5.80571 23.3728L22.7589 6.63477ZM42.2057 59.3405C42.0445 59.4989 41.8041 59.5451 41.5956 59.4579C41.3871 59.3707 41.2513 59.167 41.2509 58.941V42.584H59.1815L42.2057 59.3385V59.3405Z" fill="#8E75FF"/>
<path opacity="0.405" d="M22.7588 24.3339H40.6914C40.9988 24.3339 41.2508 24.5838 41.2508 24.8932V42.5841H23.8816C23.2626 42.5841 22.7608 42.0823 22.7608 41.4633V24.3339H22.7588Z" fill="#8E75FF"/>
</svg>
