<svg width="66" height="66" viewBox="0 0 66 66" fill="none" xmlns="http://www.w3.org/2000/svg">
<path d="M11.5158 0.56812H53.495C55.0069 0.566659 56.5043 0.871021 57.9015 1.46379C59.2986 2.05655 60.5681 2.92609 61.6372 4.02263C62.7064 5.11917 63.5541 6.42118 64.1321 7.85416C64.71 9.28713 65.0068 10.8229 65.0054 12.3737V53.7626C65.0068 55.3133 64.71 56.8491 64.1321 58.2821C63.5541 59.715 62.7064 61.0171 61.6372 62.1136C60.5681 63.2101 59.2986 64.0797 57.9015 64.6724C56.5043 65.2652 55.0069 65.5696 53.495 65.5681H11.5158C10.0038 65.5696 8.50641 65.2652 7.10926 64.6724C5.71211 64.0797 4.44265 63.2101 3.37352 62.1136C2.3044 61.0171 1.4566 59.715 0.878652 58.2821C0.300704 56.8491 0.00395116 55.3133 0.0053762 53.7626V12.3737C0.00395116 10.8229 0.300704 9.28713 0.878652 7.85416C1.4566 6.42118 2.3044 5.11917 3.37352 4.02263C4.44265 2.92609 5.71211 2.05655 7.10926 1.46379C8.50641 0.871021 10.0038 0.566659 11.5158 0.56812Z" fill="white"/>
<path d="M32.0054 3.56812C15.4251 3.56812 2.00537 16.9879 2.00537 33.5681C2.00537 50.1483 15.4251 63.5681 32.0054 63.5681C48.5856 63.5681 62.0054 50.1483 62.0054 33.5681C62.0054 16.9879 48.5856 3.56812 32.0054 3.56812ZM48.1966 20.9263C46.7866 20.9749 45.8627 20.1483 45.8141 18.8842C45.8141 18.3979 45.9114 18.009 46.2517 17.5227C46.5435 16.9393 46.6407 16.842 46.6407 16.5989C46.5921 15.821 45.4251 15.7723 45.0848 15.7723C40.5629 15.9182 39.396 21.996 38.4235 26.9555L37.9373 29.5811C40.5143 29.9701 42.3619 29.4838 43.383 28.8517C44.8417 27.9279 42.994 26.9555 43.1885 25.8858C43.4316 24.8161 44.4041 24.2812 45.182 24.2326C46.3003 24.184 47.0783 25.3509 47.0297 26.5179C46.9811 28.4141 44.4527 31.0884 39.3473 30.9425C38.7153 30.9425 38.1804 30.8939 37.6456 30.8453L36.6731 36.1451C35.7979 40.1321 34.6796 45.6265 30.5953 50.3915C27.0945 54.573 23.5451 55.2051 21.9405 55.2537C18.9746 55.3509 16.9811 53.7464 16.9324 51.6556C16.8838 49.6135 18.6828 48.4952 19.8498 48.4466C21.4543 48.3979 22.524 49.5649 22.5726 50.8777C22.6213 51.996 22.0378 52.3363 21.6488 52.5795C21.4057 52.774 21.0167 53.0171 21.0167 53.4547C21.0167 53.6492 21.2598 54.0868 21.8919 54.0868C23.1561 54.0381 23.9827 53.406 24.5662 53.0171C27.4835 50.5859 28.6018 46.3558 30.0605 38.7221L30.3522 36.8744C30.8384 34.3947 31.4219 31.5746 32.2485 28.8031C30.2063 27.2472 28.9908 25.3509 26.2193 24.6216C24.323 24.0868 23.2047 24.5244 22.3781 25.5454C21.4057 26.761 21.7461 28.3169 22.6699 29.2407L24.1772 30.9425C26.0734 33.1305 27.0945 34.7837 26.7055 37.0689C26.1707 40.6184 21.8433 43.3898 16.7379 41.8339C12.3619 40.4725 11.584 37.4093 12.1188 35.7075C12.5564 34.2002 13.772 33.9085 14.9389 34.2975C16.2031 34.6864 16.6893 36.1937 16.3003 37.3607C16.2517 37.5065 16.2031 37.701 16.0572 37.9441C15.9114 38.2845 15.6683 38.5276 15.5224 38.9166C15.2307 39.8404 16.4948 40.4725 17.37 40.7642C19.3149 41.3477 21.2112 40.3266 21.6974 38.7707C22.135 37.312 21.2112 36.291 20.8708 35.902L19.0232 33.9085C18.1966 32.9846 16.3003 30.359 17.2242 27.3931C17.5645 26.2748 18.2939 25.0592 19.3636 24.2812C21.6002 22.5795 24.0799 22.3363 26.4138 23.0171C29.4284 23.8923 30.8871 25.8858 32.7833 27.4417C33.853 24.3785 35.3117 21.3153 37.4997 18.7869C39.4932 16.453 42.1188 14.7999 45.182 14.654C48.2452 14.5568 50.5305 15.9182 50.6277 18.1062C50.5791 19.0787 50.0443 20.8777 48.1966 20.9263Z" fill="#1A171B"/>
</svg>
