<svg width="66" height="66" viewBox="0 0 66 66" fill="none" xmlns="http://www.w3.org/2000/svg">
<path d="M5.0835 0.568115H59.9272C62.7318 0.568115 65.0054 2.84167 65.0054 5.64624V60.49C65.0054 63.2946 62.7318 65.5681 59.9272 65.5681H5.0835C2.27892 65.5681 0.00537109 63.2946 0.00537109 60.49V5.64624C0.00537109 2.84167 2.27892 0.568115 5.0835 0.568115Z" fill="#3178C6"/>
<path d="M38.2228 51.47V58.4829C39.3634 59.0674 40.7124 59.5056 42.2696 59.7978C43.8268 60.0901 45.468 60.2361 47.1936 60.2361C48.875 60.2361 50.4725 60.0754 51.9858 59.7539C53.4991 59.4325 54.8263 58.9028 55.9666 58.1652C57.1071 57.4274 58.01 56.463 58.6755 55.2722C59.3407 54.0816 59.6733 52.6098 59.6733 50.8565C59.6733 49.5855 59.4832 48.4713 59.1031 47.5144C58.723 46.5574 58.1745 45.7063 57.458 44.9613C56.7417 44.2161 55.8825 43.5478 54.8811 42.956C53.8795 42.3644 52.7498 41.8055 51.4922 41.2797C50.5711 40.8996 49.7451 40.5309 49.0138 40.1729C48.2829 39.8149 47.6613 39.4498 47.1497 39.0771C46.6378 38.7046 46.243 38.31 45.9652 37.8936C45.6874 37.4772 45.5485 37.0062 45.5485 36.4801C45.5485 35.9979 45.6727 35.5635 45.9213 35.1763C46.1698 34.7891 46.521 34.4567 46.9742 34.1792C47.4274 33.9014 47.983 33.6861 48.6411 33.5325C49.299 33.3791 50.0302 33.3025 50.8344 33.3025C51.4194 33.3025 52.0371 33.3464 52.6876 33.434C53.3384 33.5216 53.9927 33.6567 54.6508 33.8395C55.3087 34.022 55.9483 34.2521 56.5698 34.5299C57.1912 34.8074 57.7652 35.1288 58.2916 35.4939V28.9414C57.2242 28.5323 56.058 28.2292 54.7933 28.0319C53.5286 27.8346 52.0772 27.7361 50.4395 27.7361C48.7726 27.7361 47.1936 27.9151 45.7021 28.2731C44.2107 28.6308 42.8983 29.1897 41.7651 29.9494C40.6319 30.7093 39.7364 31.6772 39.0782 32.8533C38.4204 34.0294 38.0913 35.4355 38.0913 37.072C38.0913 39.1611 38.6943 40.9435 39.9009 42.4192C41.1072 43.8947 42.9384 45.1439 45.3949 46.1666C46.36 46.5612 47.2594 46.9482 48.0927 47.3283C48.9263 47.7081 49.6463 48.1024 50.2532 48.5115C50.86 48.9205 51.3389 49.3661 51.6898 49.8483C52.0407 50.3304 52.2161 50.8784 52.2161 51.4921C52.2161 51.9448 52.1064 52.365 51.8871 52.7522C51.6679 53.1391 51.3351 53.4753 50.8892 53.7602C50.4433 54.0451 49.8875 54.2678 49.2223 54.4285C48.5571 54.5892 47.7783 54.6697 46.8864 54.6697C45.3657 54.6697 43.8598 54.4031 42.3684 53.8696C40.8767 53.3364 39.4949 52.5366 38.2228 51.47ZM26.534 34.0182H35.5522V28.2439H10.4155V34.0182H19.3898V59.7283H26.534V34.0182Z" fill="white"/>
</svg>
