<svg width="66" height="66" viewBox="0 0 66 66" fill="none" xmlns="http://www.w3.org/2000/svg">
<path d="M11.5158 1.00147H53.495C55.0069 1.00001 56.5043 1.30437 57.9015 1.89714C59.2986 2.4899 60.5681 3.35944 61.6372 4.45598C62.7063 5.55252 63.5541 6.85453 64.1321 8.28751C64.71 9.72048 65.0068 11.2563 65.0054 12.807V54.1959C65.0068 55.7466 64.71 57.2824 64.1321 58.7154C63.5541 60.1484 62.7063 61.4504 61.6372 62.547C60.5681 63.6435 59.2986 64.513 57.9015 65.1058C56.5043 65.6986 55.0069 66.0029 53.495 66.0015H11.5158C10.0038 66.0029 8.50641 65.6986 7.10926 65.1058C5.71211 64.513 4.44265 63.6435 3.37352 62.547C2.3044 61.4504 1.4566 60.1484 0.878652 58.7154C0.300704 57.2824 0.00395116 55.7466 0.0053762 54.1959V12.807C0.00395116 11.2563 0.300704 9.72048 0.878652 8.28751C1.4566 6.85453 2.3044 5.55252 3.37352 4.45598C4.44265 3.35944 5.71211 2.4899 7.10926 1.89714C8.50641 1.30437 10.0038 1.00001 11.5158 1.00147Z" fill="white"/>
<g clip-path="url(#clip0_110_60)">
<path d="M9.81505 33.3983C9.81505 42.3392 15.011 50.0659 22.5456 53.7275L11.7707 24.2055C10.5174 27.0148 9.81505 30.1236 9.81505 33.3983ZM47.6521 32.2584C47.6521 29.4668 46.6494 27.5335 45.7893 26.0288C44.6443 24.1681 43.5711 22.5924 43.5711 20.7318C43.5711 18.6554 45.1459 16.7225 47.3641 16.7225C47.4643 16.7225 47.5593 16.735 47.6568 16.7406C43.6381 13.0588 38.284 10.8109 32.4033 10.8109C24.512 10.8109 17.5693 14.8597 13.5303 20.9922C14.0603 21.0082 14.5597 21.0193 14.984 21.0193C17.3466 21.0193 21.0039 20.7326 21.0039 20.7326C22.2215 20.6609 22.3651 22.4493 21.1487 22.5933C21.1487 22.5933 19.9251 22.7373 18.5634 22.8086L26.7891 47.2756L31.7324 32.4501L28.2131 22.8078C26.9967 22.7364 25.8444 22.5924 25.8444 22.5924C24.6272 22.5211 24.7699 20.66 25.9871 20.7318C25.9871 20.7318 29.7174 21.0185 31.937 21.0185C34.2992 21.0185 37.9569 20.7318 37.9569 20.7318C39.1754 20.66 39.3185 22.4484 38.1017 22.5924C38.1017 22.5924 36.8755 22.7364 35.5164 22.8078L43.6794 47.0895L45.9324 39.5605C46.909 36.4362 47.6521 34.1922 47.6521 32.2584ZM32.7996 35.3741L26.0223 55.0676C28.0459 55.6625 30.1859 55.9878 32.4033 55.9878C35.0337 55.9878 37.5563 55.5331 39.9044 54.7074C39.8438 54.6107 39.7887 54.508 39.7436 54.3962L32.7996 35.3741ZM52.2236 22.5611C52.3207 23.2806 52.3757 24.0529 52.3757 24.8838C52.3757 27.1759 51.9476 29.7526 50.6582 32.9745L43.7585 52.9233C50.4738 49.0073 54.9907 41.7319 54.9907 33.3987C54.9911 29.4715 53.9879 25.7786 52.2236 22.5611ZM32.4033 7.06812C17.8847 7.06812 6.07227 18.8797 6.07227 33.3983C6.07227 47.9186 17.8847 59.7298 32.4033 59.7298C46.9214 59.7298 58.7356 47.9186 58.7356 33.3983C58.7352 18.8797 46.9214 7.06812 32.4033 7.06812ZM32.4033 58.5229C18.5505 58.5229 7.2796 47.2519 7.2796 33.3983C7.2796 19.5455 18.5501 8.27545 32.4033 8.27545C46.2557 8.27545 57.5257 19.5455 57.5257 33.3983C57.5257 47.2519 46.2557 58.5229 32.4033 58.5229Z" fill="#464342"/>
</g>
<defs>
<clipPath id="clip0_110_60">
<rect width="52.8667" height="52.8667" fill="white" transform="translate(6.07227 7.06812)"/>
</clipPath>
</defs>
</svg>
